Formula One 2011 Season

Race 6: Monaco Grand Prix, Monte Carlo

Record Source: BBC One Red Button Stream
Original Format: MPEG TS Stream
Date: Thursday 26th May 2011
Time: 15:35 to 17:05 (estimated times only)

Monaco Grand Prix Practice Session 2

Thanks to the BBC in their infinate wisdom, they Didnt broadcast the Practice session 2 live today because of the damn Chelsea flower show and the Tennis coverage. Instead they showed a replay of it in between later in the afternoon WITHOUT NOTICE as to what time it was starting. No EPG info, No scheduled time slot, NOTHIN! etc, 

So I Only JUST caught it by a fluke, However the 1st 5 minutes is missing.
Not a lot I can about it guys, blame the BBC NOT ME! At least you got most of it!

BBC F1 coverage of the 2nd Practice Session for the 6th Race meeting of the 
2011 Formula One Season, This time its one of the seasons most prestigious races,
the Monaco Grand Prix, Monte Carlo.

Complete name                    : F1 2011 Monaco Practice 2.mkv
Format                           : Matroska
File size                        : 1.46 GiB
Duration                         : 1h 30mn
Overall bit rate                 : 2 313 Kbps
Writing application              : HandBrake 0.9.5
Writing library                  : libmkv 0.6.4.1

Video
ID                               : 1
Format                           : AVC
Format/Info                      : Advanced Video Codec
Format profile                   : High@L3.0
Format settings, CABAC           : Yes
Format settings, ReFrames        : 4 frames
Codec ID                         : V_MPEG4/ISO/AVC
Duration                         : 1h 30mn
Bit rate                         : 2 199 Kbps
Width                            : 544 pixels
Height                           : 576 pixels
Display aspect ratio             : 16:9
Frame rate mode                  : Variable
Frame rate                       : 25.000 fps
Color space                      : YUV
Chroma subsampling               : 4:2:0
Bit depth                        : 8 bits
Scan type                        : Progressive
Bits/(Pixel*Frame)               : 0.281
Stream size                      : 1.35 GiB (92%)
Writing library                  : x264 core 112
Language                         : English
Color primaries                  : BT.601-6 525, BT.1358 525, BT.1700 NTSC, SMPTE 170M
Transfer characteristics         : BT.709-5, BT.1361
Matrix coefficients              : BT.601-6 525, BT.1358 525, BT.1700 NTSC, SMPTE 170M

Audio
ID                               : 2
Format                           : AC-3
Format/Info                      : Audio Coding 3
Mode extension                   : CM (complete main)
Codec ID                         : A_AC3
Duration                         : 1h 30mn
Bit rate mode                    : Constant
Bit rate                         : 128 Kbps
Channel(s)                       : 2 channels
Channel positions                : Front: L R
Sampling rate                    : 48.0 KHz
Bit depth                        : 16 bits
Compression mode                 : Lossy
Stream size                      : 82.4 MiB (6%)
Language                         : English


Enjoy, TheBlackKnight


